<svg xmlns="http://www.w3.org/2000/svg" viewBox="0 0 41 41"><path d="M23.1 23.2c.5.5 1 .5 1.5 0l.4-.3c.5-.5.5-1 0-1.5L13.5 9.9c-3.6-3.5-9 1.6-5.4 5.3 4.1 4.1 8.5 8.5 13.3 13.4 6.8 6.9 15.4-1.7 9.2-8.2-3.3-3.4-6.8-6.9-10.5-10.5-.5-.5-.5-.9 0-1.4l.2-.2c.5-.6 1.1-.6 1.7 0 3.6 3.5 7.1 7.1 10.7 10.7 4.3 4.4 3.2 11.3-2.3 14-4.2 2.1-8 .3-11.1-3-4.1-4.2-8.3-8.5-12.6-12.6-6.5-6.3 2.7-15.1 8.7-9 3.8 3.8 7.5 7.5 11 11.1 3.8 3.9-1.6 9-5.3 5.3-2.7-2.6-5.3-5.3-7.9-8-.4-.4-.4-.9 0-1.3l.3-.4c.5-.5.9-.5 1.4 0l8.2 8.2Z" style="fill:#667781;stroke-width:0"/></svg>