<svg data-name="Camada 1" xmlns="http://www.w3.org/2000/svg" viewBox="0 0 41 41"><path d="M23.19 6.45C14.96 4.64 6.85 9.73 5.08 17.82 3.3 25.91 8.53 33.93 16.76 35.73c8.23 1.81 16.34-3.28 18.11-11.37 1.78-8.09-3.45-16.11-11.68-17.91Zm-.78 10.57c0-.31.05-.61.12-.9.09-.37.22-.7.39-1 .14-.24.3-.45.48-.62.01-.01.02-.02.03-.04.12-.11.25-.2.39-.28.27-.15.57-.24.88-.23.78 0 1.46.56 1.86 1.38.24.5.37 1.09.37 1.73s-.16 1.23-.4 1.72c-.41.82-1.11 1.35-1.89 1.34-.87 0-1.6-.69-1.97-1.67-.16-.42-.25-.89-.25-1.4v-.04Zm-7.25-3.09c1.25 0 2.26 1.38 2.27 3.08 0 .85-.25 1.63-.65 2.19-.2.28-.45.51-.72.66s-.57.24-.88.25c-.94 0-1.74-.77-2.09-1.88-.12-.37-.18-.78-.18-1.2 0-1.71 1-3.09 2.25-3.1Zm-5.05 8.92v-.13a.38.38 0 0 1 .45-.3c6.37 1.21 12.53 1.22 18.46.01h.11c.17.03.3.19.27.36-1.44 11.08-17.64 11.16-19.29.06Z" style="fill:#8696a0;stroke-width:0"/><path d="M26.85 24.66c.29-.04.36.06.21.31-1.91 3.03-9.7 2.46-11.78 1.63-4.4-1.77-4.25-2.33.45-1.69 3.04.42 6.75.34 11.12-.25Z" style="fill:#8696a0;stroke-width:0"/></svg>