<svg data-name="Camada 1" xmlns="http://www.w3.org/2000/svg" viewBox="0 0 41 41"><path d="M22.13 4.52C13.4 3.54 5.55 9.71 4.58 18.3c-.96 8.59 5.33 16.35 14.06 17.32 8.73.98 16.58-5.19 17.55-13.78.96-8.59-5.33-16.35-14.06-17.32Zm11.89 17.46c-.97 6.83-7.05 11.7-13.91 11.41-.52-.01-1.05-.05-1.58-.13-7.4-1.05-12.55-7.81-11.52-15.09.97-6.83 7.05-11.7 13.91-11.41.52.01 1.05.05 1.58.13 7.4 1.05 12.55 7.81 11.52 15.09Z" style="fill:#667781;stroke-width:0"/><ellipse cx="24.73" cy="16.63" rx="2.04" ry="2.75" transform="rotate(-.3 24.783 17.254)" style="fill:#667781;stroke-width:0"/><ellipse cx="16.14" cy="16.65" rx="2.75" ry="2.05" transform="rotate(-89.6 16.14 16.647)" style="fill:#667781;stroke-width:0"/><path d="M26.85 21.73c-4.74.74-9.31.38-14.19-.06h-.15c-.35.05-.59.38-.54.73.84 5.77 6.72 7.86 11.82 6.26 2.17-.67 3.71-2.05 4.62-4.12l.22-.49c.81-1.85.22-2.63-1.78-2.32Zm-.16 2.45c-4.01 2.06-7.71 2.22-11.12.48-2.08-1.06-1.96-1.42.35-1.08 3.37.49 6.89.45 10.55-.13.14-.03.26.07.37.28.08.17.01.37-.15.45Z" style="fill:#667781;stroke-width:0"/></svg>